HIERARCHY
ROOT Hips
{
	OFFSET	0.000000	0.000000	0.000000
	CHANNELS 6 Xposition Yposition Zposition Zrotation Xrotation Yrotation
	JOINT LeftHip
	{
		OFFSET	4.740440	-3.195970	-0.322709
		CHANNELS 3 Zrotation Xrotation Yrotation
		JOINT LeftKnee
		{
			OFFSET	-1.605680	-15.592300	1.005510
			CHANNELS 3 Zrotation Xrotation Yrotation
			JOINT LeftAnkle
			{
				OFFSET	-0.632401	-16.421000	-1.413730
				CHANNELS 3 Zrotation Xrotation Yrotation
				End Site
				{
					OFFSET	0.008423	-2.933000	-1.776750
				}
			}
		}
	}
	JOINT RightHip
	{
		OFFSET	-4.740440	-3.195970	-0.322709
		CHANNELS 3 Zrotation Xrotation Yrotation
		JOINT RightKnee
		{
			OFFSET	1.605680	-15.592300	1.005510
			CHANNELS 3 Zrotation Xrotation Yrotation
			JOINT RightAnkle
			{
				OFFSET	0.632401	-16.421000	-1.413730
				CHANNELS 3 Zrotation Xrotation Yrotation
				End Site
				{
					OFFSET	-0.008423	-2.933000	-1.776750
				}
			}
		}
	}
	JOINT Chest
	{
		OFFSET	0.000000	3.468200	0.078401
		CHANNELS 3 Zrotation Xrotation Yrotation
		JOINT LeftCollar
		{
			OFFSET	3.857650	15.070700	-0.011583
			CHANNELS 3 Zrotation Xrotation Yrotation
			JOINT LeftShoulder
			{
				OFFSET	3.979720	-1.940530	-0.165223
				CHANNELS 3 Zrotation Xrotation Yrotation
				JOINT LeftElbow
				{
					OFFSET	0.615844	-10.986600	-0.673886
					CHANNELS 3 Zrotation Xrotation Yrotation
					JOINT LeftWrist
					{
						OFFSET	0.826843	-10.854500	1.034220
						CHANNELS 3 Zrotation Xrotation Yrotation
						End Site
						{
							OFFSET	-1.679080	-8.456540	0.936217
						}
					}
				}
			}
		}
		JOINT RightCollar
		{
			OFFSET	-3.857650	15.070700	-0.011583
			CHANNELS 3 Zrotation Xrotation Yrotation
			JOINT RightShoulder
			{
				OFFSET	-3.979720	-1.940530	-0.165223
				CHANNELS 3 Zrotation Xrotation Yrotation
				JOINT RightElbow
				{
					OFFSET	-0.615845	-10.986600	-0.673886
					CHANNELS 3 Zrotation Xrotation Yrotation
					JOINT RightWrist
					{
						OFFSET	-0.826843	-10.854500	1.034220
						CHANNELS 3 Zrotation Xrotation Yrotation
						End Site
						{
							OFFSET	1.679080	-8.456540	0.936217
						}
					}
				}
			}
		}
		JOINT Neck
		{
			OFFSET	0.000000	15.101400	0.055730
			CHANNELS 3 Zrotation Xrotation Yrotation
			JOINT Head
			{
				OFFSET	0.000000	4.185120	1.488260
				CHANNELS 3 Zrotation Xrotation Yrotation
				End Site
				{
					OFFSET	0.000000	7.773420	-0.106016
				}
			}
		}
	}
}
MOTION
Frames:     17
Frame Time: 0.016667
-0.154650	36.501747	-1.013276	-0.634406	-18.754963	-20.582624	3.111625	6.617635	7.845469	-11.033682	29.126970	5.270710	6.590180	-16.848572	12.013444	-18.149813	-3.463737	-3.564468	4.848356	33.890911	-0.657219	5.879563	-10.998515	13.413856	-1.795497	13.354026	1.958166	-8.727092	-9.777604	11.122892	16.560497	-10.159138	0.417373	51.098530	-128.077835	67.122223	35.813164	-25.252256	15.042681	-18.491333	-19.879089	13.623433	-8.972494	-29.773197	15.435253	69.043144	-78.553505	73.174248	-13.281619	-13.856963	-8.574859	-11.488763	11.317929	2.715374	13.100211	6.445436	-5.206056	
-0.079260	36.532017	-1.179952	-1.400920	-18.469839	-22.139650	3.773071	6.265090	8.691474	-11.285460	29.454245	5.833700	6.588512	-16.837322	12.065254	-17.231642	-3.966170	-3.191587	4.423659	33.160110	-0.160910	5.802107	-10.057007	13.775938	-1.220932	14.673002	1.354803	-8.614636	-10.978815	8.730581	15.996639	-12.258454	-1.086295	51.929115	-125.037201	67.682861	34.991737	-24.132093	15.594008	-18.273882	-18.765455	11.706131	-10.049623	-28.761494	13.498997	69.386200	-80.170868	73.244705	-15.851508	-13.616721	-9.903217	-10.242129	10.521515	0.989912	11.931938	5.082829	-5.680285	
-0.060376	36.527313	-1.266427	-1.604484	-18.336155	-22.607059	3.991801	6.035617	8.937568	-11.397349	29.656326	6.006908	6.602252	-16.858889	12.123086	-16.843254	-4.240436	-3.659564	3.782946	33.043690	0.675566	5.824216	-9.764425	13.904436	-1.086770	15.093929	1.193319	-8.518063	-11.320895	7.887860	15.481962	-13.191487	-2.520150	52.020927	-123.192627	67.178017	34.529800	-23.758120	15.539919	-18.143965	-18.326851	11.031751	-10.417568	-28.421556	12.775956	69.793678	-80.641548	73.547539	-16.641960	-13.572386	-10.292747	-9.764564	10.330327	0.566616	11.509086	4.548734	-5.808441	
0.007950	36.541790	-1.460140	-2.209408	-17.977930	-23.784164	4.772973	5.178212	9.545736	-11.870542	30.664091	6.455296	6.735353	-17.082926	12.375260	-15.913451	-4.796780	-3.494416	3.221307	32.407921	1.237460	5.818694	-8.887991	14.138280	-0.632187	16.590830	0.575467	-8.133070	-12.201485	5.331523	15.479367	-13.856204	-0.988682	53.370689	-123.421127	68.577888	32.637684	-22.987940	15.048077	-17.672235	-16.995480	8.879214	-11.284476	-27.207769	10.716497	72.936310	-81.997787	76.409935	-18.536221	-13.470329	-11.204219	-8.392097	9.283973	-0.845368	10.351948	3.511977	-5.669620	
0.029247	36.524376	-1.577964	-2.410557	-17.900043	-24.142288	5.054133	4.879104	9.736154	-12.053467	31.083679	6.578463	6.799903	-17.174673	12.480179	-15.456226	-5.090693	-3.728279	2.629536	32.365501	1.847336	5.841849	-8.611975	14.139737	-0.466212	17.217546	0.380853	-8.006028	-12.556426	4.458005	15.095398	-14.463556	-2.246128	53.320038	-121.961937	68.013977	31.896318	-22.796150	14.784190	-17.510643	-16.551306	8.093292	-11.494015	-26.765348	10.122013	74.640633	-82.477966	78.015366	-19.041416	-13.472470	-11.425986	-7.937896	8.639688	-1.412817	9.951887	3.434432	-5.481422	
0.123160	36.511978	-1.787291	-3.029542	-17.708445	-25.016979	5.979582	3.940220	10.178290	-12.623342	32.407139	6.997814	6.974057	-17.420513	12.681513	-14.527247	-5.498609	-3.314213	2.158731	31.899313	1.991879	5.908433	-7.835213	14.263293	0.123591	19.399986	-0.470910	-7.361175	-13.748210	2.084639	14.916092	-14.980910	-0.871745	55.449944	-122.515442	70.312302	29.435986	-21.966448	13.955980	-16.811733	-15.252762	6.031754	-12.112798	-25.508217	8.455997	80.088043	-84.030144	83.104256	-20.497435	-13.521602	-12.311093	-6.527656	6.943480	-2.756944	8.619470	2.560363	-4.702741	
0.133532	36.475464	-1.924760	-3.205089	-17.629461	-25.209230	6.574834	2.935211	10.340384	-13.056005	33.496460	7.207092	7.070141	-17.442810	12.747918	-14.087248	-5.886344	-3.182013	1.876161	32.034267	1.993344	5.935339	-7.630009	14.278826	0.315200	20.126713	-0.827000	-7.042586	-14.125823	1.343519	14.466588	-15.338583	-2.258659	55.321053	-121.233986	69.744804	28.534723	-21.527744	13.711086	-16.505188	-14.788605	5.383420	-12.254149	-25.130287	7.994171	82.252502	-84.551292	85.128220	-21.039131	-13.502783	-12.663284	-6.033383	6.629668	-3.041633	8.170243	1.910653	-4.431904	
0.205975	36.440922	-2.151856	-3.719450	-17.641186	-25.625561	7.192844	2.476798	10.743887	-13.247816	34.464886	7.211533	7.227157	-17.644070	12.834167	-13.329086	-6.124861	-2.733727	1.619922	31.819052	1.972143	5.964558	-7.058042	14.121933	0.704208	22.517309	-1.975171	-5.630881	-14.992065	-0.745731	13.943478	-16.004704	-1.017699	58.536526	-122.294098	73.548080	25.703117	-19.823265	13.306676	-15.365580	-13.233615	3.497280	-12.511126	-24.140442	6.704400	-88.101059	-94.032402	-85.726959	-22.797457	-13.329292	-13.806303	-4.202717	5.735756	-3.400237	6.605975	-0.107831	-3.893607	
0.209538	36.423637	-2.253596	-3.862779	-17.672434	-25.708786	7.537635	1.851046	11.025431	-13.330979	35.327003	7.117648	7.277212	-17.712177	12.860283	-13.056628	-6.240402	-2.570675	1.551759	31.821550	1.940594	5.923486	-6.888992	14.005380	0.793402	23.340130	-2.364417	-5.053572	-15.224463	-1.406696	13.391991	-16.299030	-2.421183	58.763519	-121.281502	73.429443	24.665768	-19.263260	13.238983	-14.909590	-12.698499	2.833474	-12.519675	-23.837585	6.350620	-83.508499	-93.643784	-81.271446	-23.413391	-13.256184	-14.207712	-3.546215	5.111734	-3.565719	6.061900	-0.468011	-3.664680	
0.241793	36.367722	-2.550648	-4.143698	-17.669783	-25.724546	8.086118	1.260965	11.227596	-13.645948	36.362236	7.026508	7.514965	-17.950821	12.978041	-12.497580	-6.685903	-2.473564	1.452549	31.876827	1.965000	5.759300	-6.413801	13.699025	1.100577	26.549664	-3.740402	-3.109878	-16.822958	-3.316125	12.895294	-16.840162	-1.370822	62.651016	-122.995697	78.068344	21.323812	-18.032574	12.292638	-13.135118	-12.080412	0.953800	-12.736047	-22.878153	5.364097	-66.058670	-92.732231	-64.208435	-25.135921	-13.214599	-15.224689	-1.820271	1.667558	-3.513534	4.589605	-0.733419	-3.357105	
0.262503	36.339310	-2.647853	-4.253321	-17.589188	-25.429432	8.391232	0.531088	11.297818	-13.660755	37.156174	6.843384	7.634224	-18.003590	12.972247	-12.323338	-6.797980	-2.825732	1.407682	31.897684	2.055043	5.698465	-6.289949	13.596394	1.443602	28.070570	-4.464879	-2.361327	-17.836870	-3.992085	12.766364	-16.886251	-1.610348	63.389477	-123.180534	78.916954	20.213322	-17.771643	11.882247	-12.436502	-12.391941	0.231670	-12.898092	-22.606707	5.067969	67.982864	-89.152115	69.160072	-25.932005	-13.264641	-15.679164	-0.446725	-0.270945	-3.088543	3.241104	-0.574940	-3.689559	
0.347832	36.289734	-2.903406	-4.412469	-17.494171	-25.290678	8.726263	-0.102485	11.673706	-13.814318	38.092766	6.713741	7.947139	-18.258837	12.882518	-12.006226	-7.254990	-3.130304	1.225102	31.861519	2.385719	5.597258	-5.808071	13.320711	1.994848	29.709753	-4.985605	-0.652552	-17.976959	-6.361344	12.428838	-16.593430	-3.006058	65.448669	-123.619431	81.253380	17.057154	-17.294111	10.496189	-10.576115	-10.443501	-1.903196	-13.258094	-21.931826	4.193935	-41.671146	-91.644966	-40.313965	-26.350813	-13.312580	-15.800468	0.542572	-1.833080	-2.637269	2.235620	-1.137136	-4.597127	
0.391859	36.266960	-3.005712	-4.611235	-17.341461	-25.275572	9.198719	-0.681088	12.085473	-13.792890	38.842693	6.414713	8.014428	-18.378092	12.845289	-11.751496	-7.435580	-3.312686	1.206064	31.733438	2.390477	5.529265	-5.542293	13.357951	2.802955	31.327595	-5.602859	-0.241960	-19.153284	-6.796721	12.374937	-15.850672	-5.084438	64.187363	-122.568893	79.877174	15.924964	-17.201801	9.995097	-9.122974	-9.182582	-3.879319	-13.802760	-23.946663	5.017889	-37.186615	-91.422852	-35.922676	-26.505077	-13.290595	-15.804804	0.688418	-3.396052	-2.454020	1.958431	-1.300172	-4.787777	
0.480448	36.213135	-3.113266	-4.861675	-17.145002	-25.526196	9.699441	-1.109153	12.425639	-14.333819	39.676670	6.799148	8.295124	-18.834833	12.741427	-11.453107	-7.851793	-3.609239	0.948603	31.792482	2.787014	5.500154	-5.317380	13.433142	3.645319	32.758408	-6.435135	0.779329	-19.228762	-8.076187	11.948770	-15.435668	-5.006990	68.160164	-123.918610	84.643883	12.431502	-17.228945	8.478017	-8.452240	-9.067051	-4.619709	-12.751579	-21.807873	3.830461	-47.029583	-91.025459	-45.949654	-27.235607	-12.852257	-16.039459	1.597586	-4.687627	-2.242352	0.728352	-1.414156	-4.439929	
0.518414	36.209812	-3.156903	-4.973215	-16.914709	-25.935013	9.983252	-1.439090	12.750045	-14.730372	39.995132	7.121930	8.490391	-18.956232	12.772689	-11.255630	-8.161585	-3.434996	0.950466	31.615381	2.817506	5.471967	-5.059503	13.530520	4.334026	33.775833	-7.278726	0.903076	-19.766777	-7.689697	11.652094	-15.055897	-5.218993	68.868721	-124.148651	85.315926	11.582043	-17.204996	8.124860	-7.988156	-8.866383	-5.002760	-12.569740	-22.331274	4.095273	-58.490231	-91.040237	-57.479500	-27.614574	-12.632221	-16.217756	1.638305	-5.998081	-1.510798	0.231175	-1.137452	-4.405336	
0.602565	36.188789	-3.204963	-5.077480	-16.814856	-26.554010	10.121511	-1.524847	13.026134	-15.073227	40.185783	7.591573	8.564454	-19.106356	12.813549	-11.207677	-8.520786	-3.328933	0.857441	31.584970	3.140926	5.482085	-4.838907	13.686710	4.783223	34.528675	-7.733902	1.559134	-18.262491	-8.104783	10.037181	-13.870069	-5.450100	70.710739	-124.869682	86.702423	10.141541	-17.266850	7.572011	-7.704127	-8.547218	-5.315372	-11.508622	-20.284903	3.453932	-88.293030	-91.258347	-87.560097	-28.710758	-12.246177	-16.725681	2.101707	-6.847206	-1.586906	-0.577286	-0.936928	-3.658093	
0.630167	36.204327	-3.223511	-5.141136	-16.830925	-27.245180	10.096215	-1.392508	13.024502	-15.587353	40.148834	8.392874	8.632204	-19.233562	12.906461	-11.130205	-8.646894	-2.826500	0.852029	31.397816	3.125663	5.487212	-4.604210	13.855346	4.963301	35.069534	-7.762017	1.559701	-17.977350	-7.839326	9.390613	-13.451410	-5.537723	71.169029	-124.940926	86.967133	9.814545	-17.281435	7.622060	-7.593799	-8.096137	-5.778251	-11.282610	-20.465855	3.954611	84.914963	-88.698387	85.550789	-28.947748	-12.281572	-16.742132	1.945573	-7.299721	-1.390843	-0.661881	-0.702339	-3.516226	
